<?xml version="1.0" standalone="no"?>
<!DOCTYPE svg PUBLIC "-//W3C//DTD SVG 20010904//EN"
 "http://www.w3.org/TR/2001/REC-SVG-20010904/DTD/svg10.dtd">
<svg version="1.0" xmlns="http://www.w3.org/2000/svg"
 width="2000.000000pt" height="1245.000000pt" viewBox="0 0 2000.000000 1245.000000"
 preserveAspectRatio="xMidYMid meet">

<g transform="translate(0.000000,1245.000000) scale(0.100000,-0.100000)"
fill="#000000" stroke="none">
<path d="M3290 7560 l0 -1692 808 5 c855 5 887 6 1092 56 548 132 961 469
1164 951 96 226 130 430 123 730 -6 296 -45 474 -152 695 -219 455 -620 770
-1130 886 -222 51 -220 51 -1087 56 l-818 4 0 -1691z m1550 1240 c207 -19 367
-65 539 -156 120 -63 174 -104 283 -211 240 -236 348 -535 335 -926 -9 -274
-68 -462 -209 -670 -55 -81 -217 -243 -293 -293 -136 -89 -312 -161 -480 -198
-125 -27 -319 -36 -781 -36 l-454 0 0 1250 0 1250 473 0 c259 0 524 -5 587
-10z"/>
<path d="M7110 7560 l0 -1690 235 0 235 0 2 1187 3 1187 576 -979 575 -980
124 0 124 0 575 987 576 986 3 -1194 2 -1194 234 0 234 0 4 1678 c2 922 2
1683 0 1690 -3 9 -53 12 -203 12 l-199 0 -28 -51 c-49 -90 -1303 -2254 -1310
-2261 -4 -4 -314 514 -687 1152 l-680 1160 -197 0 -198 0 0 -1690z"/>
<path d="M7370 5079 c-78 -13 -173 -62 -215 -112 -90 -105 -82 -279 17 -362
49 -42 118 -70 268 -110 74 -19 155 -46 180 -58 110 -55 99 -193 -19 -241
-126 -50 -347 -10 -442 80 -14 13 -28 24 -32 24 -4 0 -20 -27 -37 -59 l-30
-60 39 -30 c146 -116 421 -146 582 -65 109 55 159 132 159 246 0 157 -75 223
-337 292 -167 45 -207 61 -239 99 -23 27 -26 38 -22 86 4 48 10 59 41 86 47
41 96 55 188 55 89 0 159 -18 233 -58 l55 -29 9 26 c6 14 17 42 26 62 l15 37
-58 30 c-32 17 -82 38 -112 45 -74 20 -203 27 -269 16z"/>
<path d="M8027 4994 c-4 -4 -7 -43 -7 -86 l0 -78 -65 0 -66 0 3 -62 3 -63 61
-3 62 -3 4 -242 c3 -202 7 -249 22 -282 41 -95 128 -142 242 -132 65 6 141 37
150 61 3 8 -6 37 -21 65 l-25 51 -31 -22 c-43 -32 -129 -32 -161 0 -22 22 -23
28 -26 262 l-3 240 110 0 111 0 0 65 0 65 -110 0 -109 0 -3 83 -3 82 -65 3
c-36 2 -69 0 -73 -4z"/>
<path d="M8782 4829 c-60 -11 -140 -54 -185 -97 -160 -155 -155 -448 11 -593
20 -18 66 -46 102 -63 60 -28 73 -31 165 -30 128 0 192 24 274 100 84 77 115
149 119 276 5 140 -25 224 -114 311 -89 87 -231 124 -372 96z m221 -156 c120
-60 164 -243 90 -375 -111 -198 -417 -146 -463 79 -20 94 1 180 60 247 76 86
201 106 313 49z"/>
<path d="M9720 4824 c-30 -8 -74 -28 -98 -44 -23 -17 -45 -30 -47 -30 -3 0 -5
18 -5 40 l0 40 -65 0 -65 0 0 -390 0 -390 69 0 70 0 3 248 c3 234 4 249 25
289 39 71 114 113 206 113 l37 0 0 70 0 70 -37 -1 c-21 0 -63 -7 -93 -15z"/>
<path d="M10190 4825 c-164 -47 -268 -178 -278 -354 -5 -103 13 -179 61 -255
124 -196 440 -234 622 -75 19 17 35 35 35 40 0 5 -19 30 -41 54 l-42 45 -39
-36 c-53 -48 -98 -65 -172 -67 -96 -2 -153 19 -211 77 -46 46 -82 116 -67 130
3 3 142 6 310 6 l305 0 -5 84 c-4 72 -10 96 -41 159 -43 87 -85 128 -174 169
-78 37 -181 46 -263 23z m230 -153 c43 -26 90 -90 105 -139 l6 -23 -237 0
-236 0 6 30 c7 38 43 92 80 121 71 56 195 61 276 11z"/>
</g>
</svg>
